# Blender 3.3.1
# www.blender.org
mtllib a.mtl
o a
v 11.035797 -1.000000 -1.000000
v 11.035797 1.000000 -1.000000
v 13.035797 -1.000000 -1.000000
v 13.035797 1.000000 -1.000000
v 11.035797 -1.000000 1.000000
v 11.035797 1.000000 1.000000
v 13.035797 -1.000000 1.000000
v 13.035797 1.000000 1.000000
v 9.024974 -1.000000 -1.000000
v 9.024974 1.000000 -1.000000
v 9.024974 1.000000 1.000000
v 9.024974 -1.000000 1.000000
v 7.043293 -1.000000 -1.000000
v 7.043293 1.000000 -1.000000
v 7.043293 1.000000 1.000000
v 7.043293 -1.000000 1.000000
v 11.035797 3.039966 1.000000
v 11.035797 3.039966 -1.000000
v 9.024974 3.039966 1.000000
v 9.024974 3.039966 -1.000000
vn -0.0000 -0.0000 -1.0000
vn 1.0000 -0.0000 -0.0000
vn -0.0000 -0.0000 1.0000
vn -0.0000 -1.0000 -0.0000
vn -0.0000 1.0000 -0.0000
vn -1.0000 -0.0000 -0.0000
vt 0.252735 0.377852
vt 0.625117 0.755235
vt 0.127617 0.377852
vt 0.374883 0.505000
vt 0.252735 0.252735
vt 0.500000 0.755235
vt 0.127617 0.252735
vt 0.374883 0.755235
vt 0.374883 0.630117
vt 0.625117 0.630117
vt 0.249766 0.000000
vt 0.249766 0.125117
vt 0.500000 0.505000
vt 0.374883 0.000000
vt 0.500000 0.630118
vt 0.374883 0.630118
vt 0.374883 0.125117
vt 0.500000 0.630117
vt 0.750912 0.755235
vt 0.252735 0.503646
vt 0.127617 0.503646
vt 0.374883 0.123971
vt 0.123971 0.125117
vt 0.500000 0.123971
vt 0.750912 0.630117
vt 0.123971 0.000000
vt 0.874883 0.755235
vt 0.252735 0.627617
vt 1.000000 0.755235
vt 0.127617 0.627617
vt 0.374883 0.000000
vt 1.000000 0.630117
vt 0.500000 0.000000
vt 0.000000 0.125117
vt 0.874883 0.630117
vt 0.000000 0.000000
vt 0.249765 0.252735
vt 0.500000 0.377383
vt 0.000000 0.377852
vt 0.374883 0.377383
vt 0.123971 0.252735
vt 0.500000 0.251589
vt 0.000000 0.503646
vt 0.374883 0.251589
s 0
f 1/1/1 2/3/1 4/7/1 3/5/1
f 3/6/2 4/8/2 8/16/2 7/15/2
f 7/14/3 8/17/3 6/12/3 5/11/3
f 2/3/1 1/1/1 9/20/1 10/21/1
f 3/6/4 7/15/4 5/10/4 1/2/4
f 8/18/5 4/9/5 2/4/5 6/13/5
f 9/19/4 12/25/4 16/35/4 13/27/4
f 1/2/4 5/10/4 12/25/4 9/19/4
f 11/23/3 6/12/3 17/37/3 19/41/3
f 5/11/3 6/12/3 11/23/3 12/26/3
f 16/35/6 15/32/6 14/29/6 13/27/6
f 10/21/1 9/20/1 13/28/1 14/30/1
f 11/24/5 10/22/5 14/31/5 15/33/5
f 12/26/3 11/23/3 15/34/3 16/36/3
f 17/38/5 18/40/5 20/44/5 19/42/5
f 2/3/1 10/21/1 20/43/1 18/39/1
f 10/22/6 11/24/6 19/42/6 20/44/6
f 6/13/2 2/4/2 18/40/2 17/38/2
