# Blender v3.3.1 OBJ File: 'tetris-ojekte.blend'
# www.blender.org
mtllib s.mtl
o cross_Cube.001
v -1.000000 -1.000000 1.000000
v -1.000000 1.000000 1.000000
v -1.000000 -1.000000 -1.000000
v -1.000000 1.000000 -1.000000
v 1.000000 -1.000000 1.000000
v 1.000000 1.000000 1.000000
v 1.000000 -1.000000 -1.000000
v 1.000000 1.000000 -1.000000
v -1.000000 2.996598 1.000000
v -1.000000 2.996598 -1.000000
v 1.000000 2.996598 1.000000
v 1.000000 2.996598 -1.000000
v -1.000000 -2.984349 1.000000
v -1.000000 -2.984349 -1.000000
v 1.000000 -2.984349 1.000000
v 1.000000 -2.984349 -1.000000
v -1.000000 -1.000000 3.021096
v -1.000000 1.000000 3.021096
v 1.000000 -1.000000 3.021096
v 1.000000 1.000000 3.021096
v -1.000000 -1.000000 -3.008847
v -1.000000 1.000000 -3.008847
v 1.000000 -1.000000 -3.008847
v 1.000000 1.000000 -3.008847
v -1.000000 -1.000000 1.000000
v -1.000000 1.000000 1.000000
v -1.000000 -1.000000 -1.000000
v -1.000000 1.000000 -1.000000
v 1.000000 -1.000000 1.000000
v 1.000000 1.000000 1.000000
v 1.000000 -1.000000 -1.000000
v 1.000000 1.000000 -1.000000
vt 0.183887 0.093846
vt 0.276753 0.185586
vt 0.185012 0.278452
vt 0.092146 0.186712
vt 0.554473 0.093277
vt 0.461607 0.185017
vt 0.369461 0.091740
vt 0.462327 0.000000
vt 0.646214 0.186143
vt 0.553348 0.277883
vt 0.869461 0.524688
vt 0.738922 0.524688
vt 0.738922 0.392772
vt 0.869461 0.392772
vt 0.869461 0.654205
vt 0.738922 0.654205
vt 0.647182 0.001692
vt 0.738922 0.094559
vt 1.000000 0.130539
vt 0.869461 0.130539
vt 0.869461 0.000000
vt 1.000000 0.000000
vt 0.369461 0.277171
vt 0.277720 0.370037
vt 0.869461 0.130317
vt 0.738922 0.130317
vt 0.738922 0.000000
vt 1.000000 0.260856
vt 0.869461 0.260856
vt 0.869461 0.784744
vt 0.738922 0.784744
vt 0.869461 0.653628
vt 1.000000 0.653628
vt 1.000000 0.783145
vt 0.869461 0.783145
vt 0.000007 0.095689
vt 0.091747 0.002823
vt 0.461208 0.368906
vt 0.369468 0.276040
vt 0.738922 0.262233
vt 0.869461 0.262233
vt 0.738922 0.279989
vt 0.646056 0.371729
vt 0.276595 0.000000
vt 0.369461 0.091741
vt 0.869461 0.522511
vt 0.869461 0.391972
vt 1.000000 0.391972
vt 1.000000 0.522511
vt 0.092866 0.371729
vt 0.000000 0.279989
vt 0.375000 0.000000
vt 0.625000 0.000000
vt 0.625000 0.250000
vt 0.375000 0.250000
vt 0.625000 0.500000
vt 0.375000 0.500000
vt 0.625000 0.750000
vt 0.375000 0.750000
vt 0.625000 1.000000
vt 0.375000 1.000000
vt 0.125000 0.500000
vt 0.125000 0.750000
vt 0.875000 0.500000
vt 0.875000 0.750000
vn -1.0000 0.0000 0.0000
vn 1.0000 0.0000 0.0000
vn 0.0000 -1.0000 0.0000
vn 0.0000 0.0000 1.0000
vn 0.0000 1.0000 0.0000
vn 0.0000 0.0000 -1.0000
usemtl None
s off
f 1/1/1 2/2/1 4/3/1 3/4/1
f 8/5/2 7/6/2 23/7/2 24/8/2
f 7/6/2 8/5/2 6/9/2 5/10/2
f 1/11/3 5/12/3 19/13/3 17/14/3
f 5/12/4 1/11/4 13/15/4 15/16/4
f 6/9/2 8/5/2 12/17/2 11/18/2
f 12/19/5 10/20/5 9/21/5 11/22/5
f 4/3/1 2/2/1 9/23/1 10/24/1
f 2/25/4 6/26/4 11/27/4 9/21/4
f 8/28/6 4/29/6 10/20/6 12/19/6
f 14/30/3 16/31/3 15/16/3 13/15/3
f 3/32/6 7/33/6 16/34/6 14/35/6
f 1/1/1 3/4/1 14/36/1 13/37/1
f 7/6/2 5/10/2 15/38/2 16/39/2
f 19/13/4 20/40/4 18/41/4 17/14/4
f 6/26/5 2/25/5 18/41/5 20/40/5
f 5/10/2 6/9/2 20/42/2 19/43/2
f 2/2/1 1/1/1 17/44/1 18/45/1
f 21/46/6 22/47/6 24/48/6 23/49/6
f 7/33/3 3/32/3 21/46/3 23/49/3
f 4/29/5 8/28/5 24/48/5 22/47/5
f 3/4/1 4/3/1 22/50/1 21/51/1
f 25/52/1 26/53/1 28/54/1 27/55/1
f 27/55/6 28/54/6 32/56/6 31/57/6
f 31/57/2 32/56/2 30/58/2 29/59/2
f 29/59/4 30/58/4 26/60/4 25/61/4
f 27/62/3 31/57/3 29/59/3 25/63/3
f 32/56/5 28/64/5 26/65/5 30/58/5
o a_Cube.002
v -1.000000 -1.000000 -11.035797
v -1.000000 1.000000 -11.035797
v -1.000000 -1.000000 -13.035797
v -1.000000 1.000000 -13.035797
v 1.000000 -1.000000 -11.035797
v 1.000000 1.000000 -11.035797
v 1.000000 -1.000000 -13.035797
v 1.000000 1.000000 -13.035797
v -1.000000 -1.000000 -9.024974
v -1.000000 1.000000 -9.024974
v 1.000000 1.000000 -9.024974
v 1.000000 -1.000000 -9.024974
v -1.000000 -1.000000 -7.043293
v -1.000000 1.000000 -7.043293
v 1.000000 1.000000 -7.043293
v 1.000000 -1.000000 -7.043293
v 1.000000 3.039966 -11.035797
v -1.000000 3.039966 -11.035797
v 1.000000 3.039966 -9.024974
v -1.000000 3.039966 -9.024974
vt 0.252735 0.377852
vt 0.127617 0.377852
vt 0.127617 0.252735
vt 0.252735 0.252735
vt 0.500000 0.755235
vt 0.374883 0.755235
vt 0.374883 0.630118
vt 0.500000 0.630118
vt 0.374883 0.000000
vt 0.374883 0.125117
vt 0.249766 0.125117
vt 0.249766 0.000000
vt 0.252735 0.503646
vt 0.127617 0.503646
vt 0.625117 0.630117
vt 0.625117 0.755235
vt 0.500000 0.630117
vt 0.374883 0.630117
vt 0.374883 0.505000
vt 0.500000 0.505000
vt 0.750912 0.755235
vt 0.750912 0.630117
vt 0.874883 0.630117
vt 0.874883 0.755235
vt 0.123971 0.125117
vt 0.249765 0.252735
vt 0.123971 0.252735
vt 0.123971 0.000000
vt 1.000000 0.630117
vt 1.000000 0.755235
vt 0.252735 0.627617
vt 0.127617 0.627617
vt 0.500000 0.123971
vt 0.374883 0.123971
vt 0.374883 0.000000
vt 0.500000 0.000000
vt 0.000000 0.125117
vt 0.000000 0.000000
vt 0.500000 0.377383
vt 0.374883 0.377383
vt 0.374883 0.251589
vt 0.500000 0.251589
vt 0.000000 0.503646
vt 0.000000 0.377852
vn -1.0000 0.0000 0.0000
vn 0.0000 0.0000 -1.0000
vn 1.0000 0.0000 0.0000
vn 0.0000 -1.0000 0.0000
vn 0.0000 1.0000 0.0000
vn 0.0000 0.0000 1.0000
usemtl None
s off
f 33/66/7 34/67/7 36/68/7 35/69/7
f 35/70/8 36/71/8 40/72/8 39/73/8
f 39/74/9 40/75/9 38/76/9 37/77/9
f 34/67/7 33/66/7 41/78/7 42/79/7
f 35/70/10 39/73/10 37/80/10 33/81/10
f 40/82/11 36/83/11 34/84/11 38/85/11
f 41/86/10 44/87/10 48/88/10 45/89/10
f 33/81/10 37/80/10 44/87/10 41/86/10
f 43/90/9 38/76/9 49/91/9 51/92/9
f 37/77/9 38/76/9 43/90/9 44/93/9
f 48/88/12 47/94/12 46/95/12 45/89/12
f 42/79/7 41/78/7 45/96/7 46/97/7
f 43/98/11 42/99/11 46/100/11 47/101/11
f 44/93/9 43/90/9 47/102/9 48/103/9
f 49/104/11 50/105/11 52/106/11 51/107/11
f 34/67/7 42/79/7 52/108/7 50/109/7
f 42/99/12 43/98/12 51/107/12 52/106/12
f 38/85/8 34/84/8 50/105/8 49/104/8
o s_Cube.003
v -1.000000 -1.000000 16.008318
v -1.000000 1.000000 16.008318
v -1.000000 -1.000000 14.008318
v -1.000000 1.000000 14.008318
v 1.000000 -1.000000 16.008318
v 1.000000 1.000000 16.008318
v 1.000000 -1.000000 14.008318
v 1.000000 1.000000 14.008318
v -1.000000 3.010823 16.008318
v -1.000000 3.010823 14.008318
v 1.000000 3.010823 14.008318
v 1.000000 3.010823 16.008318
v 1.000000 1.000000 18.048283
v -1.000000 1.000000 18.048283
v 1.000000 3.010823 18.048283
v -1.000000 3.010823 18.048283
v 1.000000 4.992504 16.008318
v -1.000000 4.992504 16.008318
v 1.000000 4.992504 18.048283
v -1.000000 4.992504 18.048283
vt 0.596025 0.198924
vt 0.397102 0.198924
vt 0.397102 0.000000
vt 0.596025 0.000000
vt 0.794949 0.597847
vt 0.794949 0.398924
vt 0.993872 0.398924
vt 0.993872 0.597847
vt 0.401822 0.401822
vt 0.401822 0.600746
vt 0.202898 0.600746
vt 0.202899 0.401822
vt 0.993872 0.796771
vt 0.993872 0.995694
vt 0.794949 0.995694
vt 0.794949 0.796771
vt 0.401822 0.800746
vt 0.202898 0.800746
vt 0.993872 0.198924
vt 0.794949 0.198924
vt 0.794949 0.000000
vt 0.993872 0.000000
vt 0.197101 0.198924
vt 0.197102 0.000000
vt 0.000000 0.800746
vt 0.000000 0.600746
vt 0.794949 0.797101
vt 0.596025 0.797101
vt 0.596025 0.597101
vt 0.794949 0.597101
vt 0.596025 0.400000
vt 0.794949 0.400000
vt 0.794949 1.000000
vt 0.596025 1.000000
vt 0.397102 0.401822
vt 0.197102 0.401822
vt 0.596025 0.197101
vt 0.794949 0.197101
vt 0.596025 0.000000
vt 0.000000 0.401822
vt 0.000000 0.198924
vt 0.202899 0.997847
vt 0.000000 0.997847
vn -1.0000 0.0000 0.0000
vn 0.0000 0.0000 -1.0000
vn 1.0000 0.0000 0.0000
vn 0.0000 0.0000 1.0000
vn 0.0000 -1.0000 0.0000
vn 0.0000 1.0000 0.0000
usemtl None
s off
f 53/110/13 54/111/13 56/112/13 55/113/13
f 55/114/14 56/115/14 60/116/14 59/117/14
f 59/118/15 60/119/15 58/120/15 57/121/15
f 57/122/16 58/123/16 54/124/16 53/125/16
f 55/114/17 59/117/17 57/122/17 53/125/17
f 58/120/15 60/119/15 63/126/15 64/127/15
f 63/128/18 62/129/18 61/130/18 64/131/18
f 56/112/13 54/111/13 61/132/13 62/133/13
f 58/120/15 64/127/15 67/134/15 65/135/15
f 60/116/14 56/115/14 62/129/14 63/128/14
f 66/136/16 65/137/16 67/138/16 68/139/16
f 68/139/16 67/138/16 71/140/16 72/141/16
f 54/142/17 58/143/17 65/137/17 66/136/17
f 61/132/13 54/111/13 66/144/13 68/145/13
f 69/146/18 70/147/18 72/141/18 71/140/18
f 64/148/14 61/130/14 70/147/14 69/146/14
f 61/132/13 68/145/13 72/149/13 70/150/13
f 67/134/15 64/127/15 69/151/15 71/152/15
o Cube_Cube.004
v -1.000000 -1.000000 9.025523
v -1.000000 1.000000 9.025523
v -1.000000 -1.000000 7.025523
v -1.000000 1.000000 7.025523
v 1.000000 -1.000000 9.025523
v 1.000000 1.000000 9.025523
v 1.000000 -1.000000 7.025523
v 1.000000 1.000000 7.025523
v -1.000000 2.962573 9.025523
v -1.000000 2.962573 7.025523
v 1.000000 2.962573 7.025523
v 1.000000 2.962573 9.025523
v -1.000000 4.995238 9.025523
v -1.000000 4.995238 7.025523
v 1.000000 4.995238 7.025523
v 1.000000 4.995238 9.025523
v -1.000000 2.962573 4.992858
v 1.000000 2.962573 4.992858
v -1.000000 4.995238 4.992858
v 1.000000 4.995238 4.992858
vt 0.000000 0.374161
vt 0.124819 0.374161
vt 0.124820 0.498981
vt 0.000000 0.498981
vt 0.374161 0.875180
vt 0.374161 0.750361
vt 0.498981 0.750361
vt 0.498981 0.875180
vt 0.126858 0.374161
vt 0.126858 0.249342
vt 0.251678 0.249342
vt 0.251678 0.374161
vt 0.498981 1.000000
vt 0.498981 0.875181
vt 0.623800 0.875180
vt 0.623800 1.000000
vt 0.374161 1.000000
vt 0.126858 0.126858
vt 0.251678 0.126858
vt 0.623800 0.752697
vt 0.498981 0.752697
vt 0.498981 0.625839
vt 0.623800 0.625839
vt 0.247303 0.374161
vt 0.247303 0.498981
vt 0.374161 0.627877
vt 0.498981 0.627877
vt 0.498981 0.501019
vt 0.623800 0.501019
vt 0.374161 0.498981
vt 0.374161 0.625839
vt 0.247303 0.625839
vt 0.126858 0.000000
vt 0.251678 0.000000
vt 0.374161 0.374161
vt 0.498981 0.501019
vt 0.374161 0.501019
vt 0.374161 0.374161
vt 0.498981 0.374161
vt 0.000000 0.126858
vt 0.000000 0.000000
vt 0.623800 0.374161
vn -1.0000 0.0000 0.0000
vn 0.0000 0.0000 -1.0000
vn 1.0000 0.0000 0.0000
vn 0.0000 0.0000 1.0000
vn 0.0000 -1.0000 0.0000
vn 0.0000 1.0000 0.0000
usemtl None
s off
f 73/153/19 74/154/19 76/155/19 75/156/19
f 75/157/20 76/158/20 80/159/20 79/160/20
f 79/161/21 80/162/21 78/163/21 77/164/21
f 77/165/22 78/166/22 74/167/22 73/168/22
f 75/157/23 79/160/23 77/165/23 73/169/23
f 78/163/21 80/162/21 83/170/21 84/171/21
f 81/172/22 84/173/22 88/174/22 85/175/22
f 76/155/19 74/154/19 81/176/19 82/177/19
f 74/167/22 78/166/22 84/173/22 81/172/22
f 80/159/20 76/158/20 82/178/20 83/179/20
f 87/180/24 86/181/24 85/175/24 88/174/24
f 82/177/19 86/182/19 91/183/19 89/184/19
f 84/171/21 83/170/21 87/185/21 88/186/21
f 82/177/19 81/176/19 85/187/19 86/182/19
f 90/188/20 89/189/20 91/190/20 92/191/20
f 83/179/23 82/178/23 89/189/23 90/188/23
f 87/185/21 83/170/21 90/192/21 92/193/21
f 86/181/24 87/180/24 92/191/24 91/194/24
